<svg width="20" height="20" viewBox="0 0 20 20" fill="none" xmlns="http://www.w3.org/2000/svg">
<path d="M10.3996 4.2001C10.3996 4.04097 10.3364 3.88836 10.2239 3.77583C10.1114 3.66331 9.95874 3.6001 9.79961 3.6001C9.64048 3.6001 9.48787 3.66331 9.37535 3.77583C9.26282 3.88836 9.19961 4.04097 9.19961 4.2001V9.2001H4.19961C4.04048 9.2001 3.88787 9.26331 3.77535 9.37583C3.66282 9.48836 3.59961 9.64097 3.59961 9.8001C3.59961 9.95923 3.66282 10.1118 3.77535 10.2244C3.88787 10.3369 4.04048 10.4001 4.19961 10.4001H9.19961V15.4001C9.19961 15.5592 9.26282 15.7118 9.37535 15.8244C9.48787 15.9369 9.64048 16.0001 9.79961 16.0001C9.95874 16.0001 10.1114 15.9369 10.2239 15.8244C10.3364 15.7118 10.3996 15.5592 10.3996 15.4001V10.4001H15.3996C15.5587 10.4001 15.7114 10.3369 15.8239 10.2244C15.9364 10.1118 15.9996 9.95923 15.9996 9.8001C15.9996 9.64097 15.9364 9.48836 15.8239 9.37583C15.7114 9.26331 15.5587 9.2001 15.3996 9.2001H10.3996V4.2001Z" fill="#4DB027"/>
</svg>
