<svg width="24" height="24" viewBox="0 0 24 24" fill="none" xmlns="http://www.w3.org/2000/svg">
<path d="M4.18314 10.7328C4.05189 10.8778 3.9825 11.0684 3.98978 11.2639C3.99705 11.4594 4.08042 11.6443 4.22209 11.7791C4.36376 11.914 4.55253 11.9882 4.74814 11.9859C4.94374 11.9836 5.1307 11.905 5.26914 11.7668L11.2231 5.51576L11.2231 20.2498C11.2231 20.4487 11.3022 20.6394 11.4428 20.7801C11.5835 20.9207 11.7742 20.9998 11.9731 20.9998C12.172 20.9998 12.3628 20.9207 12.5035 20.7801C12.6441 20.6394 12.7231 20.4487 12.7231 20.2498L12.7231 5.51576L18.6781 11.7668C18.7453 11.841 18.8266 11.901 18.9173 11.9433C19.0081 11.9856 19.1063 12.0093 19.2064 12.013C19.3064 12.0167 19.4061 12.0004 19.4997 11.965C19.5934 11.9295 19.6789 11.8757 19.7514 11.8067C19.8239 11.7377 19.8819 11.6549 19.9218 11.5631C19.9618 11.4713 19.983 11.3725 19.9842 11.2724C19.9854 11.1723 19.9665 11.073 19.9287 10.9803C19.8909 10.8877 19.835 10.8035 19.7641 10.7328L12.6971 3.31275C12.5371 3.14475 12.3311 3.04476 12.1171 3.01276C12.0212 2.99542 11.9229 2.99576 11.8271 3.01375C11.6064 3.04646 11.4029 3.15206 11.2491 3.31375L4.18314 10.7328Z" fill="white"/>
</svg>
