<svg width="24" height="24" viewBox="0 0 24 24" fill="none" xmlns="http://www.w3.org/2000/svg">
<path d="M16.6255 4.75195C17.2337 4.75195 17.8361 4.87167 18.3979 5.10449C18.9599 5.33736 19.4709 5.67911 19.9009 6.10938C20.7672 6.97654 21.2541 8.15214 21.2544 9.37793C21.2546 10.6038 20.768 11.78 19.9019 12.6475L11.9995 20.5439L4.10498 12.6494C3.23774 11.7821 2.75057 10.6054 2.75049 9.37891C2.75051 8.1524 3.23776 6.97573 4.10498 6.1084C4.97227 5.24111 6.14895 4.75399 7.37549 4.75391C8.60205 4.75389 9.77862 5.24114 10.646 6.1084L12.0005 7.46289L12.5308 6.93164L13.3501 6.11035C13.7805 5.67966 14.2916 5.33713 14.853 5.10449C15.4149 4.87165 16.0173 4.75196 16.6255 4.75195Z" fill="white" stroke="white" stroke-width="1.5"/>
</svg>
