<svg width="19" height="24" viewBox="0 0 19 24" fill="none" xmlns="http://www.w3.org/2000/svg">
<path d="M18.4 14.72C18.4 11.84 16.48 9.76 14.88 7.68C12.16 4.16 9.12 0 9.12 0C9.12 0 6.08 4.16 3.36 7.52C1.76 9.6 0 11.84 0 14.72C0 19.52 3.68 23.52 8.31999 24V20.48L5.28 18.72C4.96 18.56 4.79999 18.08 5.12 17.76C5.27999 17.44 5.76 17.28 6.08001 17.44L8.48001 18.88V15.04L5.44 13.28C5.12 13.12 4.96 12.64 5.28 12.32C5.44 12 5.92 11.84 6.24 12L8.64 13.44V9.28C8.64 8.96 8.96 8.64 9.28001 8.64C9.60001 8.64 9.92 8.96 9.92 9.28V13.44L12.32 12C12.64 11.84 12.96 12 13.28 12.32C13.44 12.64 13.28 13.12 13.12 13.28L10.08 15.04V18.88L12.48 17.44C12.8 17.28 13.12 17.44 13.44 17.76C13.6 18.08 13.44 18.56 13.28 18.72L10.24 20.48V24C14.56 23.68 18.4 19.52 18.4 14.72Z" fill="#4B8B33"/>
</svg>
