<svg width="24" height="24" viewBox="0 0 24 24" fill="none" xmlns="http://www.w3.org/2000/svg">
<path d="M12 1.5C10.0109 1.5 8.10322 2.29018 6.6967 3.6967C5.29018 5.10322 4.5 7.01088 4.5 9C4.5 10.716 5.475 12.525 6.5895 14.058C7.725 15.6225 9.105 17.037 10.1085 17.988C10.6177 18.4752 11.2953 18.7472 12 18.7472C12.7047 18.7472 13.3823 18.4752 13.8915 17.988C14.895 17.037 16.275 15.6225 17.4105 14.058C18.5235 12.525 19.5 10.716 19.5 9C19.5 8.01509 19.306 7.03982 18.9291 6.12987C18.5522 5.21993 17.9997 4.39314 17.3033 3.6967C16.6069 3.00026 15.7801 2.44781 14.8701 2.0709C13.9602 1.69399 12.9849 1.5 12 1.5ZM14.25 9C14.25 9.59674 14.0129 10.169 13.591 10.591C13.169 11.0129 12.5967 11.25 12 11.25C11.4033 11.25 10.831 11.0129 10.409 10.591C9.98705 10.169 9.75 9.59674 9.75 9C9.75 8.40326 9.98705 7.83097 10.409 7.40901C10.831 6.98705 11.4033 6.75 12 6.75C12.5967 6.75 13.169 6.98705 13.591 7.40901C14.0129 7.83097 14.25 8.40326 14.25 9ZM17.9175 15.8625C17.568 16.2975 17.2095 16.7115 16.857 17.103C17.112 17.175 17.352 17.252 17.577 17.334C18.276 17.589 18.789 17.8725 19.113 18.1515C19.4385 18.432 19.5 18.636 19.5 18.7515C19.5 18.864 19.44 19.068 19.113 19.3485C18.789 19.6275 18.276 19.9125 17.577 20.166C16.1865 20.673 14.214 21 12 21C9.786 21 7.815 20.673 6.423 20.166C5.724 19.9125 5.211 19.6275 4.887 19.3485C4.5615 19.068 4.5 18.864 4.5 18.75C4.5 18.6375 4.56 18.432 4.887 18.15C5.211 17.8725 5.724 17.5875 6.423 17.334C6.648 17.252 6.888 17.175 7.143 17.103C6.7905 16.713 6.432 16.296 6.0825 15.8625L5.91 15.924C5.115 16.2135 4.4205 16.575 3.909 17.013C3.4005 17.451 3 18.0345 3 18.75C3 19.4655 3.4005 20.049 3.909 20.487C4.419 20.9265 5.1165 21.288 5.91 21.576C7.5045 22.1565 9.6585 22.5 12 22.5C14.3415 22.5 16.4955 22.155 18.09 21.576C18.885 21.288 19.5795 20.9265 20.091 20.487C20.5995 20.049 21 19.4655 21 18.75C21 18.0345 20.5995 17.451 20.091 17.013C19.581 16.575 18.8835 16.212 18.09 15.924L17.9175 15.8625Z" fill="#1C1C1E"/>
</svg>
