<svg width="132" height="13" viewBox="0 0 132 13" fill="none" xmlns="http://www.w3.org/2000/svg">
<path d="M7.52 7.52H3.2L4.96 2.72C4.96 2.56 5.12 2.4 5.12 2.24C5.12 2.08 5.28 1.92 5.28 1.6C5.28 1.76 5.44 2.08 5.44 2.24C5.44 2.4 5.6 2.56 5.6 2.72L7.52 7.52ZM9.6 11.84H10.88L6.08 0.16H4.48L0 11.84H1.28C1.44 11.84 1.6 11.84 1.6 11.68C1.76 11.68 1.76 11.52 1.76 11.36L2.88 8.48H8L9.12 11.36C9.12 11.52 9.28 11.52 9.28 11.68C9.28 11.84 9.44 11.84 9.6 11.84ZM21.44 5.6C21.12 5.76 20.64 5.76 20.32 5.76H18.72V1.44H20.48C21.44 1.44 22.08 1.6 22.56 1.92C23.04 2.24 23.2 2.88 23.2 3.52C23.2 3.84 23.2 4.16 23.04 4.48C22.88 4.8 22.72 4.96 22.56 5.28C22.08 5.44 21.76 5.6 21.44 5.6ZM22.24 7.2C22.08 7.04 21.92 6.88 21.76 6.72C22.24 6.56 22.56 6.4 22.88 6.24C23.2 6.08 23.52 5.76 23.84 5.44C24.16 5.12 24.32 4.8 24.32 4.48C24.48 4.16 24.48 3.68 24.48 3.36C24.48 2.88 24.32 2.4 24.16 2.08C24 1.6 23.84 1.28 23.52 0.96C23.2 0.64 22.72 0.48 22.24 0.32C21.76 0.16 21.12 0.16 20.32 0.16H17.12V11.84H18.72V6.88H19.84C20 6.88 20.16 6.88 20.32 7.04C20.48 7.04 20.48 7.2 20.64 7.36L23.68 11.52C23.84 11.68 24 11.84 24.32 11.84H25.76L22.24 7.2ZM35.52 1.44H39.2V0.16H30.24V1.44H33.92V11.84H35.52V1.44ZM63.2 5.92C63.2 6.56 63.04 7.36 62.88 7.84C62.72 8.48 62.4 8.96 62.08 9.28C61.76 9.6 61.28 9.92 60.8 10.24C60.32 10.56 59.68 10.56 59.2 10.56C58.56 10.56 58.08 10.4 57.6 10.24C57.12 10.08 56.64 9.76 56.32 9.28C56 8.96 55.68 8.48 55.52 7.84C55.36 7.2 55.2 6.56 55.2 5.92C55.2 5.28 55.36 4.48 55.52 4C55.68 3.36 56 2.88 56.32 2.56C56.64 2.24 57.12 1.92 57.6 1.6C58.08 1.44 58.72 1.28 59.2 1.28C59.84 1.28 60.32 1.44 60.8 1.6C61.28 1.76 61.76 2.08 62.08 2.56C62.4 2.88 62.72 3.36 62.88 4C63.04 4.64 63.2 5.28 63.2 5.92ZM64.32 8.48C64.64 7.68 64.8 6.88 64.8 6.08C64.8 5.28 64.64 4.32 64.32 3.68C64 2.88 63.68 2.24 63.2 1.76C62.72 1.28 62.08 0.8 61.44 0.48C60.64 0.16 60 0 59.04 0C58.24 0 57.44 0.16 56.8 0.48C56.16 0.8 55.52 1.12 55.04 1.76C54.56 2.24 54.24 2.88 53.92 3.68C53.6 4.48 53.44 5.28 53.44 6.08C53.44 6.88 53.6 7.84 53.92 8.48C54.24 9.28 54.56 9.92 55.04 10.4C55.52 10.88 56.16 11.36 56.8 11.68C57.44 12 58.24 12.16 59.04 12.16C59.84 12.16 60.64 12 61.28 11.68C61.92 11.36 62.56 11.04 63.04 10.4C63.68 9.76 64 9.12 64.32 8.48ZM73.28 1.44H78.72V0.16H71.68V11.84H73.28V6.88H77.92V5.44H73.28V1.44ZM97.76 1.44H101.44V0.16H92.48V1.44H96.16V11.84H97.76V1.44ZM109.44 10.56V6.56H113.92V5.28H109.44V1.44H114.88V0.16H107.84V11.84H114.88V10.56H109.44ZM128 7.52H123.68L125.44 2.72C125.44 2.56 125.6 2.4 125.6 2.24C125.6 2.08 125.76 1.92 125.76 1.6C125.76 1.76 125.92 2.08 125.92 2.24C125.92 2.4 126.08 2.56 126.08 2.72L128 7.52ZM131.2 11.84L126.56 0.16H124.96L120.32 11.84H121.44C121.6 11.84 121.76 11.84 121.76 11.68C121.92 11.68 121.92 11.52 121.92 11.36L123.04 8.48H128.16L129.28 11.36C129.28 11.52 129.44 11.52 129.44 11.68C129.6 11.68 129.6 11.84 129.76 11.84H131.2Z" fill="black"/>
</svg>
