<svg width="20" height="20" viewBox="0 0 20 20" fill="none" xmlns="http://www.w3.org/2000/svg">
<path d="M1.66675 4.99984C1.66675 4.77882 1.75455 4.56686 1.91083 4.41058C2.06711 4.2543 2.27907 4.1665 2.50008 4.1665L17.5001 4.1665C17.7211 4.1665 17.9331 4.2543 18.0893 4.41058C18.2456 4.56686 18.3334 4.77882 18.3334 4.99984C18.3334 5.22085 18.2456 5.43281 18.0893 5.58909C17.9331 5.74537 17.7211 5.83317 17.5001 5.83317L2.50008 5.83317C2.27907 5.83317 2.06711 5.74537 1.91083 5.58909C1.75455 5.43281 1.66675 5.22085 1.66675 4.99984ZM1.66675 14.9998C1.66675 14.7788 1.75454 14.5669 1.91083 14.4106C2.06711 14.2543 2.27907 14.1665 2.50008 14.1665L17.5001 14.1665C17.7211 14.1665 17.9331 14.2543 18.0893 14.4106C18.2456 14.5669 18.3334 14.7788 18.3334 14.9998C18.3334 15.2209 18.2456 15.4328 18.0893 15.5891C17.9331 15.7454 17.7211 15.8332 17.5001 15.8332L2.50008 15.8332C2.27907 15.8332 2.06711 15.7454 1.91083 15.5891C1.75454 15.4328 1.66675 15.2209 1.66675 14.9998ZM2.50008 9.1665C2.27907 9.1665 2.06711 9.2543 1.91083 9.41058C1.75455 9.56686 1.66675 9.77882 1.66675 9.99984C1.66675 10.2209 1.75454 10.4328 1.91083 10.5891C2.06711 10.7454 2.27907 10.8332 2.50008 10.8332L17.5001 10.8332C17.7211 10.8332 17.9331 10.7454 18.0893 10.5891C18.2456 10.4328 18.3334 10.2209 18.3334 9.99984C18.3334 9.77882 18.2456 9.56686 18.0893 9.41058C17.9331 9.2543 17.7211 9.1665 17.5001 9.1665L2.50008 9.1665Z" fill="white"/>
</svg>
